
  <svg xmlns="http://www.w3.org/2000/svg" viewBox="0 0 200 5550">
    <rect width="66.66666666666667" height="30" stroke="#fff" y="0" x="0" fill="#FF8B8B" />
<rect width="66.66666666666667" height="30" stroke="#fff" y="0" x="66.66666666666667" fill="#9C2525" />
<rect width="66.66666666666667" height="30" stroke="#fff" y="0" x="133.33333333333334" fill="#F9F8E6" />
<rect width="100" height="30" stroke="#fff" y="50" x="0" fill="#F9F7E8" />
<rect width="100" height="30" stroke="#fff" y="50" x="100" fill="#62BFAD" />
<rect width="100" height="30" stroke="#fff" y="100" x="0" fill="#61BFAD" />
<rect width="100" height="30" stroke="#fff" y="100" x="100" fill="#FFFFFF" />
<rect width="100" height="30" stroke="#fff" y="150" x="0" fill="#E54B4B" />
<rect width="100" height="30" stroke="#fff" y="150" x="100" fill="#FFFFFF" />
<rect width="100" height="30" stroke="#fff" y="200" x="0" fill="#167C80" />
<rect width="100" height="30" stroke="#fff" y="200" x="100" fill="#FFFFFF" />
<rect width="100" height="30" stroke="#fff" y="250" x="0" fill="#B7E3E4" />
<rect width="100" height="30" stroke="#fff" y="250" x="100" fill="#F03F35" />
<rect width="100" height="30" stroke="#fff" y="300" x="0" fill="#EFE8D8" />
<rect width="100" height="30" stroke="#fff" y="300" x="100" fill="#FF4552" />
<rect width="100" height="30" stroke="#fff" y="350" x="0" fill="#005397" />
<rect width="100" height="30" stroke="#fff" y="350" x="100" fill="#FF8788" />
<rect width="100" height="30" stroke="#fff" y="400" x="0" fill="#32B67A" />
<rect width="100" height="30" stroke="#fff" y="400" x="100" fill="#FFFFFF" />
<rect width="66.66666666666667" height="30" stroke="#fff" y="450" x="0" fill="#FBCBC1" />
<rect width="66.66666666666667" height="30" stroke="#fff" y="450" x="66.66666666666667" fill="#FFFFFF" />
<rect width="66.66666666666667" height="30" stroke="#fff" y="450" x="133.33333333333334" fill="#000000" />
<rect width="100" height="30" stroke="#fff" y="500" x="0" fill="#F3C9DD" />
<rect width="100" height="30" stroke="#fff" y="500" x="100" fill="#72AEC5" />
<rect width="100" height="30" stroke="#fff" y="550" x="0" fill="#0BBCD6" />
<rect width="100" height="30" stroke="#fff" y="550" x="100" fill="#E6625E" />
<rect width="100" height="30" stroke="#fff" y="600" x="0" fill="#BFB5D7" />
<rect width="100" height="30" stroke="#fff" y="600" x="100" fill="#FFFFFF" />
<rect width="66.66666666666667" height="30" stroke="#fff" y="650" x="0" fill="#BEA1A5" />
<rect width="66.66666666666667" height="30" stroke="#fff" y="650" x="66.66666666666667" fill="#2D1FE8" />
<rect width="66.66666666666667" height="30" stroke="#fff" y="650" x="133.33333333333334" fill="#000000" />
<rect width="100" height="30" stroke="#fff" y="700" x="0" fill="#F0CF61" />
<rect width="100" height="30" stroke="#fff" y="700" x="100" fill="#EBE8E1" />
<rect width="100" height="30" stroke="#fff" y="750" x="0" fill="#0E38B1" />
<rect width="100" height="30" stroke="#fff" y="750" x="100" fill="#FFFFFF" />
<rect width="66.66666666666667" height="30" stroke="#fff" y="800" x="0" fill="#A6CFE2" />
<rect width="66.66666666666667" height="30" stroke="#fff" y="800" x="66.66666666666667" fill="#FFFFFF" />
<rect width="66.66666666666667" height="30" stroke="#fff" y="800" x="133.33333333333334" fill="#0B0C11" />
<rect width="66.66666666666667" height="30" stroke="#fff" y="850" x="0" fill="#371722" />
<rect width="66.66666666666667" height="30" stroke="#fff" y="850" x="66.66666666666667" fill="#FFFFFF" />
<rect width="66.66666666666667" height="30" stroke="#fff" y="850" x="133.33333333333334" fill="#BBAB9B" />
<rect width="100" height="30" stroke="#fff" y="900" x="0" fill="#C7C6C4" />
<rect width="100" height="30" stroke="#fff" y="900" x="100" fill="#008E8F" />
<rect width="66.66666666666667" height="30" stroke="#fff" y="950" x="0" fill="#DABAAF" />
<rect width="66.66666666666667" height="30" stroke="#fff" y="950" x="66.66666666666667" fill="#0B0C11" />
<rect width="66.66666666666667" height="30" stroke="#fff" y="950" x="133.33333333333334" fill="#CF2F89" />
<rect width="100" height="30" stroke="#fff" y="1000" x="0" fill="#283470" />
<rect width="100" height="30" stroke="#fff" y="1000" x="100" fill="#15A29C" />
<rect width="66.66666666666667" height="30" stroke="#fff" y="1050" x="0" fill="#EF3E4A" />
<rect width="66.66666666666667" height="30" stroke="#fff" y="1050" x="66.66666666666667" fill="#FEDAC2" />
<rect width="66.66666666666667" height="30" stroke="#fff" y="1050" x="133.33333333333334" fill="#B0D8DC" />
<rect width="66.66666666666667" height="30" stroke="#fff" y="1100" x="0" fill="#C0C2CE" />
<rect width="66.66666666666667" height="30" stroke="#fff" y="1100" x="66.66666666666667" fill="#012F63" />
<rect width="66.66666666666667" height="30" stroke="#fff" y="1100" x="133.33333333333334" fill="#FE667B" />
<rect width="100" height="30" stroke="#fff" y="1150" x="0" fill="#EEC0DB" />
<rect width="100" height="30" stroke="#fff" y="1150" x="100" fill="#162BF4" />
<rect width="100" height="30" stroke="#fff" y="1200" x="0" fill="#B6CAC0" />
<rect width="100" height="30" stroke="#fff" y="1200" x="100" fill="#C02A1B" />
<rect width="66.66666666666667" height="30" stroke="#fff" y="1250" x="0" fill="#C5BEAA" />
<rect width="66.66666666666667" height="30" stroke="#fff" y="1250" x="66.66666666666667" fill="#B32A48" />
<rect width="66.66666666666667" height="30" stroke="#fff" y="1250" x="133.33333333333334" fill="#28356A" />
<rect width="100" height="30" stroke="#fff" y="1300" x="0" fill="#FDF06F" />
<rect width="100" height="30" stroke="#fff" y="1300" x="100" fill="#D31B33" />
<rect width="66.66666666666667" height="30" stroke="#fff" y="1350" x="0" fill="#EDB5BD" />
<rect width="66.66666666666667" height="30" stroke="#fff" y="1350" x="66.66666666666667" fill="#000000" />
<rect width="66.66666666666667" height="30" stroke="#fff" y="1350" x="133.33333333333334" fill="#BEDFD4" />
<rect width="100" height="30" stroke="#fff" y="1400" x="0" fill="#17C37B" />
<rect width="100" height="30" stroke="#fff" y="1400" x="100" fill="#F4F4F4" />
<rect width="100" height="30" stroke="#fff" y="1450" x="0" fill="#F1C3B8" />
<rect width="100" height="30" stroke="#fff" y="1450" x="100" fill="#19227D" />
<rect width="100" height="30" stroke="#fff" y="1500" x="0" fill="#1B1D1C" />
<rect width="100" height="30" stroke="#fff" y="1500" x="100" fill="#EA1821" />
<rect width="100" height="30" stroke="#fff" y="1550" x="0" fill="#E88565" />
<rect width="100" height="30" stroke="#fff" y="1550" x="100" fill="#181A27" />
<rect width="100" height="30" stroke="#fff" y="1600" x="0" fill="#FFEFE5" />
<rect width="100" height="30" stroke="#fff" y="1600" x="100" fill="#1FC8A9" />
<rect width="100" height="30" stroke="#fff" y="1650" x="0" fill="#F4C7EE" />
<rect width="100" height="30" stroke="#fff" y="1650" x="100" fill="#008FD3" />
<rect width="100" height="30" stroke="#fff" y="1700" x="0" fill="#77EEDF" />
<rect width="100" height="30" stroke="#fff" y="1700" x="100" fill="#28292B" />
<rect width="100" height="30" stroke="#fff" y="1750" x="0" fill="#E57066" />
<rect width="100" height="30" stroke="#fff" y="1750" x="100" fill="#28292B" />
<rect width="100" height="30" stroke="#fff" y="1800" x="0" fill="#EED974" />
<rect width="100" height="30" stroke="#fff" y="1800" x="100" fill="#28292B" />
<rect width="100" height="30" stroke="#fff" y="1850" x="0" fill="#FBFE56" />
<rect width="100" height="30" stroke="#fff" y="1850" x="100" fill="#0B64C0" />
<rect width="66.66666666666667" height="30" stroke="#fff" y="1900" x="0" fill="#A7BBC3" />
<rect width="66.66666666666667" height="30" stroke="#fff" y="1900" x="66.66666666666667" fill="#FFFFFF" />
<rect width="66.66666666666667" height="30" stroke="#fff" y="1900" x="133.33333333333334" fill="#C886A2" />
<rect width="100" height="30" stroke="#fff" y="1950" x="0" fill="#3B465C" />
<rect width="100" height="30" stroke="#fff" y="1950" x="100" fill="#E9E8D4" />
<rect width="100" height="30" stroke="#fff" y="2000" x="0" fill="#055A5B" />
<rect width="100" height="30" stroke="#fff" y="2000" x="100" fill="#E6E6E6" />
<rect width="66.66666666666667" height="30" stroke="#fff" y="2050" x="0" fill="#9C9CDD" />
<rect width="66.66666666666667" height="30" stroke="#fff" y="2050" x="66.66666666666667" fill="#CAE9BF" />
<rect width="66.66666666666667" height="30" stroke="#fff" y="2050" x="133.33333333333334" fill="#F9BDBD" />
<rect width="66.66666666666667" height="30" stroke="#fff" y="2100" x="0" fill="#D3E8E1" />
<rect width="66.66666666666667" height="30" stroke="#fff" y="2100" x="66.66666666666667" fill="#78A15D" />
<rect width="66.66666666666667" height="30" stroke="#fff" y="2100" x="133.33333333333334" fill="#E44A66" />
<rect width="66.66666666666667" height="30" stroke="#fff" y="2150" x="0" fill="#CBA0AA" />
<rect width="66.66666666666667" height="30" stroke="#fff" y="2150" x="66.66666666666667" fill="#5A3C20" />
<rect width="66.66666666666667" height="30" stroke="#fff" y="2150" x="133.33333333333334" fill="#FAE397" />
<rect width="66.66666666666667" height="30" stroke="#fff" y="2200" x="0" fill="#178E96" />
<rect width="66.66666666666667" height="30" stroke="#fff" y="2200" x="66.66666666666667" fill="#FFFFFF" />
<rect width="66.66666666666667" height="30" stroke="#fff" y="2200" x="133.33333333333334" fill="#FDE3C8" />
<rect width="100" height="30" stroke="#fff" y="2250" x="0" fill="#20AD65" />
<rect width="100" height="30" stroke="#fff" y="2250" x="100" fill="#FEC8BE" />
<rect width="66.66666666666667" height="30" stroke="#fff" y="2300" x="0" fill="#E75153" />
<rect width="66.66666666666667" height="30" stroke="#fff" y="2300" x="66.66666666666667" fill="#58B89D" />
<rect width="66.66666666666667" height="30" stroke="#fff" y="2300" x="133.33333333333334" fill="#4F3A4B" />
<rect width="100" height="30" stroke="#fff" y="2350" x="0" fill="#4F3A4B" />
<rect width="100" height="30" stroke="#fff" y="2350" x="100" fill="#E75152" />
<rect width="100" height="30" stroke="#fff" y="2400" x="0" fill="#112378" />
<rect width="100" height="30" stroke="#fff" y="2400" x="100" fill="#FBECCF" />
<rect width="100" height="30" stroke="#fff" y="2450" x="0" fill="#E33946" />
<rect width="100" height="30" stroke="#fff" y="2450" x="100" fill="#FDEDB2" />
<rect width="66.66666666666667" height="30" stroke="#fff" y="2500" x="0" fill="#FEDCCC" />
<rect width="66.66666666666667" height="30" stroke="#fff" y="2500" x="66.66666666666667" fill="#F87C4C" />
<rect width="66.66666666666667" height="30" stroke="#fff" y="2500" x="133.33333333333334" fill="#FFFFFF" />
<rect width="66.66666666666667" height="30" stroke="#fff" y="2550" x="0" fill="#00B28B" />
<rect width="66.66666666666667" height="30" stroke="#fff" y="2550" x="66.66666666666667" fill="#FFFFFF" />
<rect width="66.66666666666667" height="30" stroke="#fff" y="2550" x="133.33333333333334" fill="#EDC3C7" />
<rect width="66.66666666666667" height="30" stroke="#fff" y="2600" x="0" fill="#9357A9" />
<rect width="66.66666666666667" height="30" stroke="#fff" y="2600" x="66.66666666666667" fill="#FFFFFF" />
<rect width="66.66666666666667" height="30" stroke="#fff" y="2600" x="133.33333333333334" fill="#000000" />
<rect width="66.66666666666667" height="30" stroke="#fff" y="2650" x="0" fill="#C6D7C7" />
<rect width="66.66666666666667" height="30" stroke="#fff" y="2650" x="66.66666666666667" fill="#C98A6B" />
<rect width="66.66666666666667" height="30" stroke="#fff" y="2650" x="133.33333333333334" fill="#FF5035" />
<rect width="100" height="30" stroke="#fff" y="2700" x="0" fill="#12162D" />
<rect width="100" height="30" stroke="#fff" y="2700" x="100" fill="#8B743D" />
<rect width="66.66666666666667" height="30" stroke="#fff" y="2750" x="0" fill="#BEF6E9" />
<rect width="66.66666666666667" height="30" stroke="#fff" y="2750" x="66.66666666666667" fill="#4B5C68" />
<rect width="66.66666666666667" height="30" stroke="#fff" y="2750" x="133.33333333333334" fill="#BB828B" />
<rect width="66.66666666666667" height="30" stroke="#fff" y="2800" x="0" fill="#776EA7" />
<rect width="66.66666666666667" height="30" stroke="#fff" y="2800" x="66.66666666666667" fill="#BDC6FF" />
<rect width="66.66666666666667" height="30" stroke="#fff" y="2800" x="133.33333333333334" fill="#EBB9D4" />
<rect width="66.66666666666667" height="30" stroke="#fff" y="2850" x="0" fill="#EAEAEA" />
<rect width="66.66666666666667" height="30" stroke="#fff" y="2850" x="66.66666666666667" fill="#BF8351" />
<rect width="66.66666666666667" height="30" stroke="#fff" y="2850" x="133.33333333333334" fill="#ABCEE2" />
<rect width="100" height="30" stroke="#fff" y="2900" x="0" fill="#EF303B" />
<rect width="100" height="30" stroke="#fff" y="2900" x="100" fill="#481C19" />
<rect width="66.66666666666667" height="30" stroke="#fff" y="2950" x="0" fill="#1812D6" />
<rect width="66.66666666666667" height="30" stroke="#fff" y="2950" x="66.66666666666667" fill="#000018" />
<rect width="66.66666666666667" height="30" stroke="#fff" y="2950" x="133.33333333333334" fill="#FFFFFF" />
<rect width="66.66666666666667" height="30" stroke="#fff" y="3000" x="0" fill="#FFFDE7" />
<rect width="66.66666666666667" height="30" stroke="#fff" y="3000" x="66.66666666666667" fill="#EC0B19" />
<rect width="66.66666666666667" height="30" stroke="#fff" y="3000" x="133.33333333333334" fill="#189BA3" />
<rect width="66.66666666666667" height="30" stroke="#fff" y="3050" x="0" fill="#F1D3D3" />
<rect width="66.66666666666667" height="30" stroke="#fff" y="3050" x="66.66666666666667" fill="#000000" />
<rect width="66.66666666666667" height="30" stroke="#fff" y="3050" x="133.33333333333334" fill="#1539CF" />
<rect width="66.66666666666667" height="30" stroke="#fff" y="3100" x="0" fill="#D1E9E3" />
<rect width="66.66666666666667" height="30" stroke="#fff" y="3100" x="66.66666666666667" fill="#334A45" />
<rect width="66.66666666666667" height="30" stroke="#fff" y="3100" x="133.33333333333334" fill="#F3BFA9" />
<rect width="100" height="30" stroke="#fff" y="3150" x="0" fill="#7DE0E6" />
<rect width="100" height="30" stroke="#fff" y="3150" x="100" fill="#FF2A93" />
<rect width="66.66666666666667" height="30" stroke="#fff" y="3200" x="0" fill="#3B755F" />
<rect width="66.66666666666667" height="30" stroke="#fff" y="3200" x="66.66666666666667" fill="#000000" />
<rect width="66.66666666666667" height="30" stroke="#fff" y="3200" x="133.33333333333334" fill="#F2CB6C" />
<rect width="66.66666666666667" height="30" stroke="#fff" y="3250" x="0" fill="#CE7182" />
<rect width="66.66666666666667" height="30" stroke="#fff" y="3250" x="66.66666666666667" fill="#85CEBA" />
<rect width="66.66666666666667" height="30" stroke="#fff" y="3250" x="133.33333333333334" fill="#FAEED4" />
<rect width="100" height="30" stroke="#fff" y="3300" x="0" fill="#340B0B" />
<rect width="100" height="30" stroke="#fff" y="3300" x="100" fill="#9B8FFF" />
<rect width="100" height="30" stroke="#fff" y="3350" x="0" fill="#F8EBEE" />
<rect width="100" height="30" stroke="#fff" y="3350" x="100" fill="#0C3934" />
<rect width="66.66666666666667" height="30" stroke="#fff" y="3400" x="0" fill="#FF9966" />
<rect width="66.66666666666667" height="30" stroke="#fff" y="3400" x="66.66666666666667" fill="#FFD2DD" />
<rect width="66.66666666666667" height="30" stroke="#fff" y="3400" x="133.33333333333334" fill="#8C5F31" />
<rect width="100" height="30" stroke="#fff" y="3450" x="0" fill="#3333FF" />
<rect width="100" height="30" stroke="#fff" y="3450" x="100" fill="#CDFFCC" />
<rect width="100" height="30" stroke="#fff" y="3500" x="0" fill="#75FFC0" />
<rect width="100" height="30" stroke="#fff" y="3500" x="100" fill="#7A30CF" />
<rect width="100" height="30" stroke="#fff" y="3550" x="0" fill="#FB9B2A" />
<rect width="100" height="30" stroke="#fff" y="3550" x="100" fill="#0C00FF" />
<rect width="100" height="30" stroke="#fff" y="3600" x="0" fill="#FF8FA4" />
<rect width="100" height="30" stroke="#fff" y="3600" x="100" fill="#E5E8DC" />
<rect width="100" height="30" stroke="#fff" y="3650" x="0" fill="#000000" />
<rect width="100" height="30" stroke="#fff" y="3650" x="100" fill="#FF0000" />
<rect width="100" height="30" stroke="#fff" y="3700" x="0" fill="#083EA7" />
<rect width="100" height="30" stroke="#fff" y="3700" x="100" fill="#1FDE91" />
<rect width="66.66666666666667" height="30" stroke="#fff" y="3750" x="0" fill="#674B7C" />
<rect width="66.66666666666667" height="30" stroke="#fff" y="3750" x="66.66666666666667" fill="#DD705C" />
<rect width="66.66666666666667" height="30" stroke="#fff" y="3750" x="133.33333333333334" fill="#E5E8DC" />
<rect width="100" height="30" stroke="#fff" y="3800" x="0" fill="#19AAD1" />
<rect width="100" height="30" stroke="#fff" y="3800" x="100" fill="#FFCC4C" />
<rect width="66.66666666666667" height="30" stroke="#fff" y="3850" x="0" fill="#B1FDEB" />
<rect width="66.66666666666667" height="30" stroke="#fff" y="3850" x="66.66666666666667" fill="#6B7C95" />
<rect width="66.66666666666667" height="30" stroke="#fff" y="3850" x="133.33333333333334" fill="#000000" />
<rect width="100" height="30" stroke="#fff" y="3900" x="0" fill="#121738" />
<rect width="100" height="30" stroke="#fff" y="3900" x="100" fill="#D17C78" />
<rect width="100" height="30" stroke="#fff" y="3950" x="0" fill="#0C485E" />
<rect width="100" height="30" stroke="#fff" y="3950" x="100" fill="#FEB904" />
<rect width="66.66666666666667" height="30" stroke="#fff" y="4000" x="0" fill="#FFE6AD" />
<rect width="66.66666666666667" height="30" stroke="#fff" y="4000" x="66.66666666666667" fill="#FF4B24" />
<rect width="66.66666666666667" height="30" stroke="#fff" y="4000" x="133.33333333333334" fill="#9A008A" />
<rect width="66.66666666666667" height="30" stroke="#fff" y="4050" x="0" fill="#022EAC" />
<rect width="66.66666666666667" height="30" stroke="#fff" y="4050" x="66.66666666666667" fill="#13E19B" />
<rect width="66.66666666666667" height="30" stroke="#fff" y="4050" x="133.33333333333334" fill="#FBA30C" />
<rect width="66.66666666666667" height="30" stroke="#fff" y="4100" x="0" fill="#F94627" />
<rect width="66.66666666666667" height="30" stroke="#fff" y="4100" x="66.66666666666667" fill="#FFFFFF" />
<rect width="66.66666666666667" height="30" stroke="#fff" y="4100" x="133.33333333333334" fill="#9A008A" />
<rect width="50" height="30" stroke="#fff" y="4150" x="0" fill="#9AB79A" />
<rect width="50" height="30" stroke="#fff" y="4150" x="50" fill="#094436" />
<rect width="50" height="30" stroke="#fff" y="4150" x="100" fill="#D1E1CB" />
<rect width="50" height="30" stroke="#fff" y="4150" x="150" fill="#FDFF50" />
<rect width="100" height="30" stroke="#fff" y="4200" x="0" fill="#424E22" />
<rect width="100" height="30" stroke="#fff" y="4200" x="100" fill="#FFAD67" />
<rect width="100" height="30" stroke="#fff" y="4250" x="0" fill="#C73E99" />
<rect width="100" height="30" stroke="#fff" y="4250" x="100" fill="#F8DA1B" />
<rect width="66.66666666666667" height="30" stroke="#fff" y="4300" x="0" fill="#5C457B" />
<rect width="66.66666666666667" height="30" stroke="#fff" y="4300" x="66.66666666666667" fill="#FF7D39" />
<rect width="66.66666666666667" height="30" stroke="#fff" y="4300" x="133.33333333333334" fill="#FFFFFF" />
<rect width="66.66666666666667" height="30" stroke="#fff" y="4350" x="0" fill="#FF6090" />
<rect width="66.66666666666667" height="30" stroke="#fff" y="4350" x="66.66666666666667" fill="#81072C" />
<rect width="66.66666666666667" height="30" stroke="#fff" y="4350" x="133.33333333333334" fill="#FEEA0D" />
<rect width="100" height="30" stroke="#fff" y="4400" x="0" fill="#0D4CBE" />
<rect width="100" height="30" stroke="#fff" y="4400" x="100" fill="#CFCEC7" />
<rect width="66.66666666666667" height="30" stroke="#fff" y="4450" x="0" fill="#501718" />
<rect width="66.66666666666667" height="30" stroke="#fff" y="4450" x="66.66666666666667" fill="#FD750A" />
<rect width="66.66666666666667" height="30" stroke="#fff" y="4450" x="133.33333333333334" fill="#FFFFFF" />
<rect width="66.66666666666667" height="30" stroke="#fff" y="4500" x="0" fill="#E7E7E7" />
<rect width="66.66666666666667" height="30" stroke="#fff" y="4500" x="66.66666666666667" fill="#DA9F18" />
<rect width="66.66666666666667" height="30" stroke="#fff" y="4500" x="133.33333333333334" fill="#766C08" />
<rect width="100" height="30" stroke="#fff" y="4550" x="0" fill="#8AA9C6" />
<rect width="100" height="30" stroke="#fff" y="4550" x="100" fill="#093929" />
<rect width="66.66666666666667" height="30" stroke="#fff" y="4600" x="0" fill="#B3E0E0" />
<rect width="66.66666666666667" height="30" stroke="#fff" y="4600" x="66.66666666666667" fill="#000000" />
<rect width="66.66666666666667" height="30" stroke="#fff" y="4600" x="133.33333333333334" fill="#FFFFFF" />
<rect width="66.66666666666667" height="30" stroke="#fff" y="4650" x="0" fill="#343B3F" />
<rect width="66.66666666666667" height="30" stroke="#fff" y="4650" x="66.66666666666667" fill="#FF89B5" />
<rect width="66.66666666666667" height="30" stroke="#fff" y="4650" x="133.33333333333334" fill="#D1BDFF" />
<rect width="66.66666666666667" height="30" stroke="#fff" y="4700" x="0" fill="#CDB670" />
<rect width="66.66666666666667" height="30" stroke="#fff" y="4700" x="66.66666666666667" fill="#FFFFFF" />
<rect width="66.66666666666667" height="30" stroke="#fff" y="4700" x="133.33333333333334" fill="#000000" />
<rect width="66.66666666666667" height="30" stroke="#fff" y="4750" x="0" fill="#F8DA1B" />
<rect width="66.66666666666667" height="30" stroke="#fff" y="4750" x="66.66666666666667" fill="#9A008A" />
<rect width="66.66666666666667" height="30" stroke="#fff" y="4750" x="133.33333333333334" fill="#7B76A6" />
<rect width="66.66666666666667" height="30" stroke="#fff" y="4800" x="0" fill="#F83439" />
<rect width="66.66666666666667" height="30" stroke="#fff" y="4800" x="66.66666666666667" fill="#9BC6E3" />
<rect width="66.66666666666667" height="30" stroke="#fff" y="4800" x="133.33333333333334" fill="#321913" />
<rect width="100" height="30" stroke="#fff" y="4850" x="0" fill="#EEE9DC" />
<rect width="100" height="30" stroke="#fff" y="4850" x="100" fill="#E2818A" />
<rect width="66.66666666666667" height="30" stroke="#fff" y="4900" x="0" fill="#E2A9C9" />
<rect width="66.66666666666667" height="30" stroke="#fff" y="4900" x="66.66666666666667" fill="#000000" />
<rect width="66.66666666666667" height="30" stroke="#fff" y="4900" x="133.33333333333334" fill="#FC411E" />
<rect width="50" height="30" stroke="#fff" y="4950" x="0" fill="#0A005A" />
<rect width="50" height="30" stroke="#fff" y="4950" x="50" fill="#F0F0F0" />
<rect width="50" height="30" stroke="#fff" y="4950" x="100" fill="#FCA59B" />
<rect width="50" height="30" stroke="#fff" y="4950" x="150" fill="#FC411E" />
<rect width="100" height="30" stroke="#fff" y="5000" x="0" fill="#CDCDD0" />
<rect width="100" height="30" stroke="#fff" y="5000" x="100" fill="#F74A1F" />
<rect width="100" height="30" stroke="#fff" y="5050" x="0" fill="#F7F7F7" />
<rect width="100" height="30" stroke="#fff" y="5050" x="100" fill="#26CB4D" />
<rect width="66.66666666666667" height="30" stroke="#fff" y="5100" x="0" fill="#2D1C46" />
<rect width="66.66666666666667" height="30" stroke="#fff" y="5100" x="66.66666666666667" fill="#B6D5F4" />
<rect width="66.66666666666667" height="30" stroke="#fff" y="5100" x="133.33333333333334" fill="#EC2326" />
<rect width="66.66666666666667" height="30" stroke="#fff" y="5150" x="0" fill="#053161" />
<rect width="66.66666666666667" height="30" stroke="#fff" y="5150" x="66.66666666666667" fill="#FF6A34" />
<rect width="66.66666666666667" height="30" stroke="#fff" y="5150" x="133.33333333333334" fill="#BED9DA" />
<rect width="50" height="30" stroke="#fff" y="5200" x="0" fill="#FDB90B" />
<rect width="50" height="30" stroke="#fff" y="5200" x="50" fill="#FB5408" />
<rect width="50" height="30" stroke="#fff" y="5200" x="100" fill="#8CAECC" />
<rect width="50" height="30" stroke="#fff" y="5200" x="150" fill="#321913" />
<rect width="66.66666666666667" height="30" stroke="#fff" y="5250" x="0" fill="#837663" />
<rect width="66.66666666666667" height="30" stroke="#fff" y="5250" x="66.66666666666667" fill="#101C4E" />
<rect width="66.66666666666667" height="30" stroke="#fff" y="5250" x="133.33333333333334" fill="#FFD3C2" />
<rect width="50" height="30" stroke="#fff" y="5300" x="0" fill="#B2B2B2" />
<rect width="50" height="30" stroke="#fff" y="5300" x="50" fill="#000000" />
<rect width="50" height="30" stroke="#fff" y="5300" x="100" fill="#FFFFFF" />
<rect width="50" height="30" stroke="#fff" y="5300" x="150" fill="#E9FF27" />
<rect width="66.66666666666667" height="30" stroke="#fff" y="5350" x="0" fill="#91A8CF" />
<rect width="66.66666666666667" height="30" stroke="#fff" y="5350" x="66.66666666666667" fill="#FFFBFB" />
<rect width="66.66666666666667" height="30" stroke="#fff" y="5350" x="133.33333333333334" fill="#3E4668" />
<rect width="66.66666666666667" height="30" stroke="#fff" y="5400" x="0" fill="#F2F2F2" />
<rect width="66.66666666666667" height="30" stroke="#fff" y="5400" x="66.66666666666667" fill="#000000" />
<rect width="66.66666666666667" height="30" stroke="#fff" y="5400" x="133.33333333333334" fill="#0B64FE" />
<rect width="66.66666666666667" height="30" stroke="#fff" y="5450" x="0" fill="#F2DDBC" />
<rect width="66.66666666666667" height="30" stroke="#fff" y="5450" x="66.66666666666667" fill="#FF67B9" />
<rect width="66.66666666666667" height="30" stroke="#fff" y="5450" x="133.33333333333334" fill="#FAAD58" />
<rect width="100" height="30" stroke="#fff" y="5500" x="0" fill="#FF8B8B" />
<rect width="100" height="30" stroke="#fff" y="5500" x="100" fill="#9C2525" />
  </svg>
