
  <svg style="background: #212121" xmlns="http://www.w3.org/2000/svg" viewBox="0 0 200 4440">
    <rect width="66.66666666666667" height="30" stroke="#212121" stroke-width="2" y="0" x="0" fill="#FF8B8B" />
<rect width="66.66666666666667" height="30" stroke="#212121" stroke-width="2" y="0" x="66.66666666666667" fill="#9C2525" />
<rect width="66.66666666666667" height="30" stroke="#212121" stroke-width="2" y="0" x="133.33333333333334" fill="#F9F8E6" />
<rect width="100" height="30" stroke="#212121" stroke-width="2" y="40" x="0" fill="#F9F7E8" />
<rect width="100" height="30" stroke="#212121" stroke-width="2" y="40" x="100" fill="#62BFAD" />
<rect width="100" height="30" stroke="#212121" stroke-width="2" y="80" x="0" fill="#61BFAD" />
<rect width="100" height="30" stroke="#212121" stroke-width="2" y="80" x="100" fill="#FFFFFF" />
<rect width="100" height="30" stroke="#212121" stroke-width="2" y="120" x="0" fill="#E54B4B" />
<rect width="100" height="30" stroke="#212121" stroke-width="2" y="120" x="100" fill="#FFFFFF" />
<rect width="100" height="30" stroke="#212121" stroke-width="2" y="160" x="0" fill="#167C80" />
<rect width="100" height="30" stroke="#212121" stroke-width="2" y="160" x="100" fill="#FFFFFF" />
<rect width="100" height="30" stroke="#212121" stroke-width="2" y="200" x="0" fill="#B7E3E4" />
<rect width="100" height="30" stroke="#212121" stroke-width="2" y="200" x="100" fill="#F03F35" />
<rect width="100" height="30" stroke="#212121" stroke-width="2" y="240" x="0" fill="#EFE8D8" />
<rect width="100" height="30" stroke="#212121" stroke-width="2" y="240" x="100" fill="#FF4552" />
<rect width="100" height="30" stroke="#212121" stroke-width="2" y="280" x="0" fill="#005397" />
<rect width="100" height="30" stroke="#212121" stroke-width="2" y="280" x="100" fill="#FF8788" />
<rect width="100" height="30" stroke="#212121" stroke-width="2" y="320" x="0" fill="#32B67A" />
<rect width="100" height="30" stroke="#212121" stroke-width="2" y="320" x="100" fill="#FFFFFF" />
<rect width="66.66666666666667" height="30" stroke="#212121" stroke-width="2" y="360" x="0" fill="#FBCBC1" />
<rect width="66.66666666666667" height="30" stroke="#212121" stroke-width="2" y="360" x="66.66666666666667" fill="#FFFFFF" />
<rect width="66.66666666666667" height="30" stroke="#212121" stroke-width="2" y="360" x="133.33333333333334" fill="#000000" />
<rect width="100" height="30" stroke="#212121" stroke-width="2" y="400" x="0" fill="#F3C9DD" />
<rect width="100" height="30" stroke="#212121" stroke-width="2" y="400" x="100" fill="#72AEC5" />
<rect width="100" height="30" stroke="#212121" stroke-width="2" y="440" x="0" fill="#0BBCD6" />
<rect width="100" height="30" stroke="#212121" stroke-width="2" y="440" x="100" fill="#E6625E" />
<rect width="100" height="30" stroke="#212121" stroke-width="2" y="480" x="0" fill="#BFB5D7" />
<rect width="100" height="30" stroke="#212121" stroke-width="2" y="480" x="100" fill="#FFFFFF" />
<rect width="66.66666666666667" height="30" stroke="#212121" stroke-width="2" y="520" x="0" fill="#BEA1A5" />
<rect width="66.66666666666667" height="30" stroke="#212121" stroke-width="2" y="520" x="66.66666666666667" fill="#2D1FE8" />
<rect width="66.66666666666667" height="30" stroke="#212121" stroke-width="2" y="520" x="133.33333333333334" fill="#000000" />
<rect width="100" height="30" stroke="#212121" stroke-width="2" y="560" x="0" fill="#F0CF61" />
<rect width="100" height="30" stroke="#212121" stroke-width="2" y="560" x="100" fill="#EBE8E1" />
<rect width="100" height="30" stroke="#212121" stroke-width="2" y="600" x="0" fill="#0E38B1" />
<rect width="100" height="30" stroke="#212121" stroke-width="2" y="600" x="100" fill="#FFFFFF" />
<rect width="66.66666666666667" height="30" stroke="#212121" stroke-width="2" y="640" x="0" fill="#A6CFE2" />
<rect width="66.66666666666667" height="30" stroke="#212121" stroke-width="2" y="640" x="66.66666666666667" fill="#FFFFFF" />
<rect width="66.66666666666667" height="30" stroke="#212121" stroke-width="2" y="640" x="133.33333333333334" fill="#0B0C11" />
<rect width="66.66666666666667" height="30" stroke="#212121" stroke-width="2" y="680" x="0" fill="#371722" />
<rect width="66.66666666666667" height="30" stroke="#212121" stroke-width="2" y="680" x="66.66666666666667" fill="#FFFFFF" />
<rect width="66.66666666666667" height="30" stroke="#212121" stroke-width="2" y="680" x="133.33333333333334" fill="#BBAB9B" />
<rect width="100" height="30" stroke="#212121" stroke-width="2" y="720" x="0" fill="#C7C6C4" />
<rect width="100" height="30" stroke="#212121" stroke-width="2" y="720" x="100" fill="#008E8F" />
<rect width="66.66666666666667" height="30" stroke="#212121" stroke-width="2" y="760" x="0" fill="#DABAAF" />
<rect width="66.66666666666667" height="30" stroke="#212121" stroke-width="2" y="760" x="66.66666666666667" fill="#0B0C11" />
<rect width="66.66666666666667" height="30" stroke="#212121" stroke-width="2" y="760" x="133.33333333333334" fill="#CF2F89" />
<rect width="100" height="30" stroke="#212121" stroke-width="2" y="800" x="0" fill="#283470" />
<rect width="100" height="30" stroke="#212121" stroke-width="2" y="800" x="100" fill="#15A29C" />
<rect width="66.66666666666667" height="30" stroke="#212121" stroke-width="2" y="840" x="0" fill="#EF3E4A" />
<rect width="66.66666666666667" height="30" stroke="#212121" stroke-width="2" y="840" x="66.66666666666667" fill="#FEDAC2" />
<rect width="66.66666666666667" height="30" stroke="#212121" stroke-width="2" y="840" x="133.33333333333334" fill="#B0D8DC" />
<rect width="66.66666666666667" height="30" stroke="#212121" stroke-width="2" y="880" x="0" fill="#C0C2CE" />
<rect width="66.66666666666667" height="30" stroke="#212121" stroke-width="2" y="880" x="66.66666666666667" fill="#012F63" />
<rect width="66.66666666666667" height="30" stroke="#212121" stroke-width="2" y="880" x="133.33333333333334" fill="#FE667B" />
<rect width="100" height="30" stroke="#212121" stroke-width="2" y="920" x="0" fill="#EEC0DB" />
<rect width="100" height="30" stroke="#212121" stroke-width="2" y="920" x="100" fill="#162BF4" />
<rect width="100" height="30" stroke="#212121" stroke-width="2" y="960" x="0" fill="#B6CAC0" />
<rect width="100" height="30" stroke="#212121" stroke-width="2" y="960" x="100" fill="#C02A1B" />
<rect width="66.66666666666667" height="30" stroke="#212121" stroke-width="2" y="1000" x="0" fill="#C5BEAA" />
<rect width="66.66666666666667" height="30" stroke="#212121" stroke-width="2" y="1000" x="66.66666666666667" fill="#B32A48" />
<rect width="66.66666666666667" height="30" stroke="#212121" stroke-width="2" y="1000" x="133.33333333333334" fill="#28356A" />
<rect width="100" height="30" stroke="#212121" stroke-width="2" y="1040" x="0" fill="#FDF06F" />
<rect width="100" height="30" stroke="#212121" stroke-width="2" y="1040" x="100" fill="#D31B33" />
<rect width="66.66666666666667" height="30" stroke="#212121" stroke-width="2" y="1080" x="0" fill="#EDB5BD" />
<rect width="66.66666666666667" height="30" stroke="#212121" stroke-width="2" y="1080" x="66.66666666666667" fill="#000000" />
<rect width="66.66666666666667" height="30" stroke="#212121" stroke-width="2" y="1080" x="133.33333333333334" fill="#BEDFD4" />
<rect width="100" height="30" stroke="#212121" stroke-width="2" y="1120" x="0" fill="#17C37B" />
<rect width="100" height="30" stroke="#212121" stroke-width="2" y="1120" x="100" fill="#F4F4F4" />
<rect width="100" height="30" stroke="#212121" stroke-width="2" y="1160" x="0" fill="#F1C3B8" />
<rect width="100" height="30" stroke="#212121" stroke-width="2" y="1160" x="100" fill="#19227D" />
<rect width="100" height="30" stroke="#212121" stroke-width="2" y="1200" x="0" fill="#1B1D1C" />
<rect width="100" height="30" stroke="#212121" stroke-width="2" y="1200" x="100" fill="#EA1821" />
<rect width="100" height="30" stroke="#212121" stroke-width="2" y="1240" x="0" fill="#E88565" />
<rect width="100" height="30" stroke="#212121" stroke-width="2" y="1240" x="100" fill="#181A27" />
<rect width="100" height="30" stroke="#212121" stroke-width="2" y="1280" x="0" fill="#FFEFE5" />
<rect width="100" height="30" stroke="#212121" stroke-width="2" y="1280" x="100" fill="#1FC8A9" />
<rect width="100" height="30" stroke="#212121" stroke-width="2" y="1320" x="0" fill="#F4C7EE" />
<rect width="100" height="30" stroke="#212121" stroke-width="2" y="1320" x="100" fill="#008FD3" />
<rect width="100" height="30" stroke="#212121" stroke-width="2" y="1360" x="0" fill="#77EEDF" />
<rect width="100" height="30" stroke="#212121" stroke-width="2" y="1360" x="100" fill="#28292B" />
<rect width="100" height="30" stroke="#212121" stroke-width="2" y="1400" x="0" fill="#E57066" />
<rect width="100" height="30" stroke="#212121" stroke-width="2" y="1400" x="100" fill="#28292B" />
<rect width="100" height="30" stroke="#212121" stroke-width="2" y="1440" x="0" fill="#EED974" />
<rect width="100" height="30" stroke="#212121" stroke-width="2" y="1440" x="100" fill="#28292B" />
<rect width="100" height="30" stroke="#212121" stroke-width="2" y="1480" x="0" fill="#FBFE56" />
<rect width="100" height="30" stroke="#212121" stroke-width="2" y="1480" x="100" fill="#0B64C0" />
<rect width="66.66666666666667" height="30" stroke="#212121" stroke-width="2" y="1520" x="0" fill="#A7BBC3" />
<rect width="66.66666666666667" height="30" stroke="#212121" stroke-width="2" y="1520" x="66.66666666666667" fill="#FFFFFF" />
<rect width="66.66666666666667" height="30" stroke="#212121" stroke-width="2" y="1520" x="133.33333333333334" fill="#C886A2" />
<rect width="100" height="30" stroke="#212121" stroke-width="2" y="1560" x="0" fill="#3B465C" />
<rect width="100" height="30" stroke="#212121" stroke-width="2" y="1560" x="100" fill="#E9E8D4" />
<rect width="100" height="30" stroke="#212121" stroke-width="2" y="1600" x="0" fill="#055A5B" />
<rect width="100" height="30" stroke="#212121" stroke-width="2" y="1600" x="100" fill="#E6E6E6" />
<rect width="66.66666666666667" height="30" stroke="#212121" stroke-width="2" y="1640" x="0" fill="#9C9CDD" />
<rect width="66.66666666666667" height="30" stroke="#212121" stroke-width="2" y="1640" x="66.66666666666667" fill="#CAE9BF" />
<rect width="66.66666666666667" height="30" stroke="#212121" stroke-width="2" y="1640" x="133.33333333333334" fill="#F9BDBD" />
<rect width="66.66666666666667" height="30" stroke="#212121" stroke-width="2" y="1680" x="0" fill="#D3E8E1" />
<rect width="66.66666666666667" height="30" stroke="#212121" stroke-width="2" y="1680" x="66.66666666666667" fill="#78A15D" />
<rect width="66.66666666666667" height="30" stroke="#212121" stroke-width="2" y="1680" x="133.33333333333334" fill="#E44A66" />
<rect width="66.66666666666667" height="30" stroke="#212121" stroke-width="2" y="1720" x="0" fill="#CBA0AA" />
<rect width="66.66666666666667" height="30" stroke="#212121" stroke-width="2" y="1720" x="66.66666666666667" fill="#5A3C20" />
<rect width="66.66666666666667" height="30" stroke="#212121" stroke-width="2" y="1720" x="133.33333333333334" fill="#FAE397" />
<rect width="66.66666666666667" height="30" stroke="#212121" stroke-width="2" y="1760" x="0" fill="#178E96" />
<rect width="66.66666666666667" height="30" stroke="#212121" stroke-width="2" y="1760" x="66.66666666666667" fill="#FFFFFF" />
<rect width="66.66666666666667" height="30" stroke="#212121" stroke-width="2" y="1760" x="133.33333333333334" fill="#FDE3C8" />
<rect width="100" height="30" stroke="#212121" stroke-width="2" y="1800" x="0" fill="#20AD65" />
<rect width="100" height="30" stroke="#212121" stroke-width="2" y="1800" x="100" fill="#FEC8BE" />
<rect width="66.66666666666667" height="30" stroke="#212121" stroke-width="2" y="1840" x="0" fill="#E75153" />
<rect width="66.66666666666667" height="30" stroke="#212121" stroke-width="2" y="1840" x="66.66666666666667" fill="#58B89D" />
<rect width="66.66666666666667" height="30" stroke="#212121" stroke-width="2" y="1840" x="133.33333333333334" fill="#4F3A4B" />
<rect width="100" height="30" stroke="#212121" stroke-width="2" y="1880" x="0" fill="#4F3A4B" />
<rect width="100" height="30" stroke="#212121" stroke-width="2" y="1880" x="100" fill="#E75152" />
<rect width="100" height="30" stroke="#212121" stroke-width="2" y="1920" x="0" fill="#112378" />
<rect width="100" height="30" stroke="#212121" stroke-width="2" y="1920" x="100" fill="#FBECCF" />
<rect width="100" height="30" stroke="#212121" stroke-width="2" y="1960" x="0" fill="#E33946" />
<rect width="100" height="30" stroke="#212121" stroke-width="2" y="1960" x="100" fill="#FDEDB2" />
<rect width="66.66666666666667" height="30" stroke="#212121" stroke-width="2" y="2000" x="0" fill="#FEDCCC" />
<rect width="66.66666666666667" height="30" stroke="#212121" stroke-width="2" y="2000" x="66.66666666666667" fill="#F87C4C" />
<rect width="66.66666666666667" height="30" stroke="#212121" stroke-width="2" y="2000" x="133.33333333333334" fill="#FFFFFF" />
<rect width="66.66666666666667" height="30" stroke="#212121" stroke-width="2" y="2040" x="0" fill="#00B28B" />
<rect width="66.66666666666667" height="30" stroke="#212121" stroke-width="2" y="2040" x="66.66666666666667" fill="#FFFFFF" />
<rect width="66.66666666666667" height="30" stroke="#212121" stroke-width="2" y="2040" x="133.33333333333334" fill="#EDC3C7" />
<rect width="66.66666666666667" height="30" stroke="#212121" stroke-width="2" y="2080" x="0" fill="#9357A9" />
<rect width="66.66666666666667" height="30" stroke="#212121" stroke-width="2" y="2080" x="66.66666666666667" fill="#FFFFFF" />
<rect width="66.66666666666667" height="30" stroke="#212121" stroke-width="2" y="2080" x="133.33333333333334" fill="#000000" />
<rect width="66.66666666666667" height="30" stroke="#212121" stroke-width="2" y="2120" x="0" fill="#C6D7C7" />
<rect width="66.66666666666667" height="30" stroke="#212121" stroke-width="2" y="2120" x="66.66666666666667" fill="#C98A6B" />
<rect width="66.66666666666667" height="30" stroke="#212121" stroke-width="2" y="2120" x="133.33333333333334" fill="#FF5035" />
<rect width="100" height="30" stroke="#212121" stroke-width="2" y="2160" x="0" fill="#12162D" />
<rect width="100" height="30" stroke="#212121" stroke-width="2" y="2160" x="100" fill="#8B743D" />
<rect width="66.66666666666667" height="30" stroke="#212121" stroke-width="2" y="2200" x="0" fill="#BEF6E9" />
<rect width="66.66666666666667" height="30" stroke="#212121" stroke-width="2" y="2200" x="66.66666666666667" fill="#4B5C68" />
<rect width="66.66666666666667" height="30" stroke="#212121" stroke-width="2" y="2200" x="133.33333333333334" fill="#BB828B" />
<rect width="66.66666666666667" height="30" stroke="#212121" stroke-width="2" y="2240" x="0" fill="#776EA7" />
<rect width="66.66666666666667" height="30" stroke="#212121" stroke-width="2" y="2240" x="66.66666666666667" fill="#BDC6FF" />
<rect width="66.66666666666667" height="30" stroke="#212121" stroke-width="2" y="2240" x="133.33333333333334" fill="#EBB9D4" />
<rect width="66.66666666666667" height="30" stroke="#212121" stroke-width="2" y="2280" x="0" fill="#EAEAEA" />
<rect width="66.66666666666667" height="30" stroke="#212121" stroke-width="2" y="2280" x="66.66666666666667" fill="#BF8351" />
<rect width="66.66666666666667" height="30" stroke="#212121" stroke-width="2" y="2280" x="133.33333333333334" fill="#ABCEE2" />
<rect width="100" height="30" stroke="#212121" stroke-width="2" y="2320" x="0" fill="#EF303B" />
<rect width="100" height="30" stroke="#212121" stroke-width="2" y="2320" x="100" fill="#481C19" />
<rect width="66.66666666666667" height="30" stroke="#212121" stroke-width="2" y="2360" x="0" fill="#1812D6" />
<rect width="66.66666666666667" height="30" stroke="#212121" stroke-width="2" y="2360" x="66.66666666666667" fill="#000018" />
<rect width="66.66666666666667" height="30" stroke="#212121" stroke-width="2" y="2360" x="133.33333333333334" fill="#FFFFFF" />
<rect width="66.66666666666667" height="30" stroke="#212121" stroke-width="2" y="2400" x="0" fill="#FFFDE7" />
<rect width="66.66666666666667" height="30" stroke="#212121" stroke-width="2" y="2400" x="66.66666666666667" fill="#EC0B19" />
<rect width="66.66666666666667" height="30" stroke="#212121" stroke-width="2" y="2400" x="133.33333333333334" fill="#189BA3" />
<rect width="66.66666666666667" height="30" stroke="#212121" stroke-width="2" y="2440" x="0" fill="#F1D3D3" />
<rect width="66.66666666666667" height="30" stroke="#212121" stroke-width="2" y="2440" x="66.66666666666667" fill="#000000" />
<rect width="66.66666666666667" height="30" stroke="#212121" stroke-width="2" y="2440" x="133.33333333333334" fill="#1539CF" />
<rect width="66.66666666666667" height="30" stroke="#212121" stroke-width="2" y="2480" x="0" fill="#D1E9E3" />
<rect width="66.66666666666667" height="30" stroke="#212121" stroke-width="2" y="2480" x="66.66666666666667" fill="#334A45" />
<rect width="66.66666666666667" height="30" stroke="#212121" stroke-width="2" y="2480" x="133.33333333333334" fill="#F3BFA9" />
<rect width="100" height="30" stroke="#212121" stroke-width="2" y="2520" x="0" fill="#7DE0E6" />
<rect width="100" height="30" stroke="#212121" stroke-width="2" y="2520" x="100" fill="#FF2A93" />
<rect width="66.66666666666667" height="30" stroke="#212121" stroke-width="2" y="2560" x="0" fill="#3B755F" />
<rect width="66.66666666666667" height="30" stroke="#212121" stroke-width="2" y="2560" x="66.66666666666667" fill="#000000" />
<rect width="66.66666666666667" height="30" stroke="#212121" stroke-width="2" y="2560" x="133.33333333333334" fill="#F2CB6C" />
<rect width="66.66666666666667" height="30" stroke="#212121" stroke-width="2" y="2600" x="0" fill="#CE7182" />
<rect width="66.66666666666667" height="30" stroke="#212121" stroke-width="2" y="2600" x="66.66666666666667" fill="#85CEBA" />
<rect width="66.66666666666667" height="30" stroke="#212121" stroke-width="2" y="2600" x="133.33333333333334" fill="#FAEED4" />
<rect width="100" height="30" stroke="#212121" stroke-width="2" y="2640" x="0" fill="#340B0B" />
<rect width="100" height="30" stroke="#212121" stroke-width="2" y="2640" x="100" fill="#9B8FFF" />
<rect width="100" height="30" stroke="#212121" stroke-width="2" y="2680" x="0" fill="#F8EBEE" />
<rect width="100" height="30" stroke="#212121" stroke-width="2" y="2680" x="100" fill="#0C3934" />
<rect width="66.66666666666667" height="30" stroke="#212121" stroke-width="2" y="2720" x="0" fill="#FF9966" />
<rect width="66.66666666666667" height="30" stroke="#212121" stroke-width="2" y="2720" x="66.66666666666667" fill="#FFD2DD" />
<rect width="66.66666666666667" height="30" stroke="#212121" stroke-width="2" y="2720" x="133.33333333333334" fill="#8C5F31" />
<rect width="100" height="30" stroke="#212121" stroke-width="2" y="2760" x="0" fill="#3333FF" />
<rect width="100" height="30" stroke="#212121" stroke-width="2" y="2760" x="100" fill="#CDFFCC" />
<rect width="100" height="30" stroke="#212121" stroke-width="2" y="2800" x="0" fill="#75FFC0" />
<rect width="100" height="30" stroke="#212121" stroke-width="2" y="2800" x="100" fill="#7A30CF" />
<rect width="100" height="30" stroke="#212121" stroke-width="2" y="2840" x="0" fill="#FB9B2A" />
<rect width="100" height="30" stroke="#212121" stroke-width="2" y="2840" x="100" fill="#0C00FF" />
<rect width="100" height="30" stroke="#212121" stroke-width="2" y="2880" x="0" fill="#FF8FA4" />
<rect width="100" height="30" stroke="#212121" stroke-width="2" y="2880" x="100" fill="#E5E8DC" />
<rect width="100" height="30" stroke="#212121" stroke-width="2" y="2920" x="0" fill="#000000" />
<rect width="100" height="30" stroke="#212121" stroke-width="2" y="2920" x="100" fill="#FF0000" />
<rect width="100" height="30" stroke="#212121" stroke-width="2" y="2960" x="0" fill="#083EA7" />
<rect width="100" height="30" stroke="#212121" stroke-width="2" y="2960" x="100" fill="#1FDE91" />
<rect width="66.66666666666667" height="30" stroke="#212121" stroke-width="2" y="3000" x="0" fill="#674B7C" />
<rect width="66.66666666666667" height="30" stroke="#212121" stroke-width="2" y="3000" x="66.66666666666667" fill="#DD705C" />
<rect width="66.66666666666667" height="30" stroke="#212121" stroke-width="2" y="3000" x="133.33333333333334" fill="#E5E8DC" />
<rect width="100" height="30" stroke="#212121" stroke-width="2" y="3040" x="0" fill="#19AAD1" />
<rect width="100" height="30" stroke="#212121" stroke-width="2" y="3040" x="100" fill="#FFCC4C" />
<rect width="66.66666666666667" height="30" stroke="#212121" stroke-width="2" y="3080" x="0" fill="#B1FDEB" />
<rect width="66.66666666666667" height="30" stroke="#212121" stroke-width="2" y="3080" x="66.66666666666667" fill="#6B7C95" />
<rect width="66.66666666666667" height="30" stroke="#212121" stroke-width="2" y="3080" x="133.33333333333334" fill="#000000" />
<rect width="100" height="30" stroke="#212121" stroke-width="2" y="3120" x="0" fill="#121738" />
<rect width="100" height="30" stroke="#212121" stroke-width="2" y="3120" x="100" fill="#D17C78" />
<rect width="100" height="30" stroke="#212121" stroke-width="2" y="3160" x="0" fill="#0C485E" />
<rect width="100" height="30" stroke="#212121" stroke-width="2" y="3160" x="100" fill="#FEB904" />
<rect width="66.66666666666667" height="30" stroke="#212121" stroke-width="2" y="3200" x="0" fill="#FFE6AD" />
<rect width="66.66666666666667" height="30" stroke="#212121" stroke-width="2" y="3200" x="66.66666666666667" fill="#FF4B24" />
<rect width="66.66666666666667" height="30" stroke="#212121" stroke-width="2" y="3200" x="133.33333333333334" fill="#9A008A" />
<rect width="66.66666666666667" height="30" stroke="#212121" stroke-width="2" y="3240" x="0" fill="#022EAC" />
<rect width="66.66666666666667" height="30" stroke="#212121" stroke-width="2" y="3240" x="66.66666666666667" fill="#13E19B" />
<rect width="66.66666666666667" height="30" stroke="#212121" stroke-width="2" y="3240" x="133.33333333333334" fill="#FBA30C" />
<rect width="66.66666666666667" height="30" stroke="#212121" stroke-width="2" y="3280" x="0" fill="#F94627" />
<rect width="66.66666666666667" height="30" stroke="#212121" stroke-width="2" y="3280" x="66.66666666666667" fill="#FFFFFF" />
<rect width="66.66666666666667" height="30" stroke="#212121" stroke-width="2" y="3280" x="133.33333333333334" fill="#9A008A" />
<rect width="50" height="30" stroke="#212121" stroke-width="2" y="3320" x="0" fill="#9AB79A" />
<rect width="50" height="30" stroke="#212121" stroke-width="2" y="3320" x="50" fill="#094436" />
<rect width="50" height="30" stroke="#212121" stroke-width="2" y="3320" x="100" fill="#D1E1CB" />
<rect width="50" height="30" stroke="#212121" stroke-width="2" y="3320" x="150" fill="#FDFF50" />
<rect width="100" height="30" stroke="#212121" stroke-width="2" y="3360" x="0" fill="#424E22" />
<rect width="100" height="30" stroke="#212121" stroke-width="2" y="3360" x="100" fill="#FFAD67" />
<rect width="100" height="30" stroke="#212121" stroke-width="2" y="3400" x="0" fill="#C73E99" />
<rect width="100" height="30" stroke="#212121" stroke-width="2" y="3400" x="100" fill="#F8DA1B" />
<rect width="66.66666666666667" height="30" stroke="#212121" stroke-width="2" y="3440" x="0" fill="#5C457B" />
<rect width="66.66666666666667" height="30" stroke="#212121" stroke-width="2" y="3440" x="66.66666666666667" fill="#FF7D39" />
<rect width="66.66666666666667" height="30" stroke="#212121" stroke-width="2" y="3440" x="133.33333333333334" fill="#FFFFFF" />
<rect width="66.66666666666667" height="30" stroke="#212121" stroke-width="2" y="3480" x="0" fill="#FF6090" />
<rect width="66.66666666666667" height="30" stroke="#212121" stroke-width="2" y="3480" x="66.66666666666667" fill="#81072C" />
<rect width="66.66666666666667" height="30" stroke="#212121" stroke-width="2" y="3480" x="133.33333333333334" fill="#FEEA0D" />
<rect width="100" height="30" stroke="#212121" stroke-width="2" y="3520" x="0" fill="#0D4CBE" />
<rect width="100" height="30" stroke="#212121" stroke-width="2" y="3520" x="100" fill="#CFCEC7" />
<rect width="66.66666666666667" height="30" stroke="#212121" stroke-width="2" y="3560" x="0" fill="#501718" />
<rect width="66.66666666666667" height="30" stroke="#212121" stroke-width="2" y="3560" x="66.66666666666667" fill="#FD750A" />
<rect width="66.66666666666667" height="30" stroke="#212121" stroke-width="2" y="3560" x="133.33333333333334" fill="#FFFFFF" />
<rect width="66.66666666666667" height="30" stroke="#212121" stroke-width="2" y="3600" x="0" fill="#E7E7E7" />
<rect width="66.66666666666667" height="30" stroke="#212121" stroke-width="2" y="3600" x="66.66666666666667" fill="#DA9F18" />
<rect width="66.66666666666667" height="30" stroke="#212121" stroke-width="2" y="3600" x="133.33333333333334" fill="#766C08" />
<rect width="100" height="30" stroke="#212121" stroke-width="2" y="3640" x="0" fill="#8AA9C6" />
<rect width="100" height="30" stroke="#212121" stroke-width="2" y="3640" x="100" fill="#093929" />
<rect width="66.66666666666667" height="30" stroke="#212121" stroke-width="2" y="3680" x="0" fill="#B3E0E0" />
<rect width="66.66666666666667" height="30" stroke="#212121" stroke-width="2" y="3680" x="66.66666666666667" fill="#000000" />
<rect width="66.66666666666667" height="30" stroke="#212121" stroke-width="2" y="3680" x="133.33333333333334" fill="#FFFFFF" />
<rect width="66.66666666666667" height="30" stroke="#212121" stroke-width="2" y="3720" x="0" fill="#343B3F" />
<rect width="66.66666666666667" height="30" stroke="#212121" stroke-width="2" y="3720" x="66.66666666666667" fill="#FF89B5" />
<rect width="66.66666666666667" height="30" stroke="#212121" stroke-width="2" y="3720" x="133.33333333333334" fill="#D1BDFF" />
<rect width="66.66666666666667" height="30" stroke="#212121" stroke-width="2" y="3760" x="0" fill="#CDB670" />
<rect width="66.66666666666667" height="30" stroke="#212121" stroke-width="2" y="3760" x="66.66666666666667" fill="#FFFFFF" />
<rect width="66.66666666666667" height="30" stroke="#212121" stroke-width="2" y="3760" x="133.33333333333334" fill="#000000" />
<rect width="66.66666666666667" height="30" stroke="#212121" stroke-width="2" y="3800" x="0" fill="#F8DA1B" />
<rect width="66.66666666666667" height="30" stroke="#212121" stroke-width="2" y="3800" x="66.66666666666667" fill="#9A008A" />
<rect width="66.66666666666667" height="30" stroke="#212121" stroke-width="2" y="3800" x="133.33333333333334" fill="#7B76A6" />
<rect width="66.66666666666667" height="30" stroke="#212121" stroke-width="2" y="3840" x="0" fill="#F83439" />
<rect width="66.66666666666667" height="30" stroke="#212121" stroke-width="2" y="3840" x="66.66666666666667" fill="#9BC6E3" />
<rect width="66.66666666666667" height="30" stroke="#212121" stroke-width="2" y="3840" x="133.33333333333334" fill="#321913" />
<rect width="100" height="30" stroke="#212121" stroke-width="2" y="3880" x="0" fill="#EEE9DC" />
<rect width="100" height="30" stroke="#212121" stroke-width="2" y="3880" x="100" fill="#E2818A" />
<rect width="66.66666666666667" height="30" stroke="#212121" stroke-width="2" y="3920" x="0" fill="#E2A9C9" />
<rect width="66.66666666666667" height="30" stroke="#212121" stroke-width="2" y="3920" x="66.66666666666667" fill="#000000" />
<rect width="66.66666666666667" height="30" stroke="#212121" stroke-width="2" y="3920" x="133.33333333333334" fill="#FC411E" />
<rect width="50" height="30" stroke="#212121" stroke-width="2" y="3960" x="0" fill="#0A005A" />
<rect width="50" height="30" stroke="#212121" stroke-width="2" y="3960" x="50" fill="#F0F0F0" />
<rect width="50" height="30" stroke="#212121" stroke-width="2" y="3960" x="100" fill="#FCA59B" />
<rect width="50" height="30" stroke="#212121" stroke-width="2" y="3960" x="150" fill="#FC411E" />
<rect width="100" height="30" stroke="#212121" stroke-width="2" y="4000" x="0" fill="#CDCDD0" />
<rect width="100" height="30" stroke="#212121" stroke-width="2" y="4000" x="100" fill="#F74A1F" />
<rect width="100" height="30" stroke="#212121" stroke-width="2" y="4040" x="0" fill="#F7F7F7" />
<rect width="100" height="30" stroke="#212121" stroke-width="2" y="4040" x="100" fill="#26CB4D" />
<rect width="66.66666666666667" height="30" stroke="#212121" stroke-width="2" y="4080" x="0" fill="#2D1C46" />
<rect width="66.66666666666667" height="30" stroke="#212121" stroke-width="2" y="4080" x="66.66666666666667" fill="#B6D5F4" />
<rect width="66.66666666666667" height="30" stroke="#212121" stroke-width="2" y="4080" x="133.33333333333334" fill="#EC2326" />
<rect width="66.66666666666667" height="30" stroke="#212121" stroke-width="2" y="4120" x="0" fill="#053161" />
<rect width="66.66666666666667" height="30" stroke="#212121" stroke-width="2" y="4120" x="66.66666666666667" fill="#FF6A34" />
<rect width="66.66666666666667" height="30" stroke="#212121" stroke-width="2" y="4120" x="133.33333333333334" fill="#BED9DA" />
<rect width="50" height="30" stroke="#212121" stroke-width="2" y="4160" x="0" fill="#FDB90B" />
<rect width="50" height="30" stroke="#212121" stroke-width="2" y="4160" x="50" fill="#FB5408" />
<rect width="50" height="30" stroke="#212121" stroke-width="2" y="4160" x="100" fill="#8CAECC" />
<rect width="50" height="30" stroke="#212121" stroke-width="2" y="4160" x="150" fill="#321913" />
<rect width="66.66666666666667" height="30" stroke="#212121" stroke-width="2" y="4200" x="0" fill="#837663" />
<rect width="66.66666666666667" height="30" stroke="#212121" stroke-width="2" y="4200" x="66.66666666666667" fill="#101C4E" />
<rect width="66.66666666666667" height="30" stroke="#212121" stroke-width="2" y="4200" x="133.33333333333334" fill="#FFD3C2" />
<rect width="50" height="30" stroke="#212121" stroke-width="2" y="4240" x="0" fill="#B2B2B2" />
<rect width="50" height="30" stroke="#212121" stroke-width="2" y="4240" x="50" fill="#000000" />
<rect width="50" height="30" stroke="#212121" stroke-width="2" y="4240" x="100" fill="#FFFFFF" />
<rect width="50" height="30" stroke="#212121" stroke-width="2" y="4240" x="150" fill="#E9FF27" />
<rect width="66.66666666666667" height="30" stroke="#212121" stroke-width="2" y="4280" x="0" fill="#91A8CF" />
<rect width="66.66666666666667" height="30" stroke="#212121" stroke-width="2" y="4280" x="66.66666666666667" fill="#FFFBFB" />
<rect width="66.66666666666667" height="30" stroke="#212121" stroke-width="2" y="4280" x="133.33333333333334" fill="#3E4668" />
<rect width="66.66666666666667" height="30" stroke="#212121" stroke-width="2" y="4320" x="0" fill="#F2F2F2" />
<rect width="66.66666666666667" height="30" stroke="#212121" stroke-width="2" y="4320" x="66.66666666666667" fill="#000000" />
<rect width="66.66666666666667" height="30" stroke="#212121" stroke-width="2" y="4320" x="133.33333333333334" fill="#0B64FE" />
<rect width="66.66666666666667" height="30" stroke="#212121" stroke-width="2" y="4360" x="0" fill="#F2DDBC" />
<rect width="66.66666666666667" height="30" stroke="#212121" stroke-width="2" y="4360" x="66.66666666666667" fill="#FF67B9" />
<rect width="66.66666666666667" height="30" stroke="#212121" stroke-width="2" y="4360" x="133.33333333333334" fill="#FAAD58" />
<rect width="100" height="30" stroke="#212121" stroke-width="2" y="4400" x="0" fill="#FF8B8B" />
<rect width="100" height="30" stroke="#212121" stroke-width="2" y="4400" x="100" fill="#9C2525" />
  </svg>
